<svg id="svg" version="1.1" xmlns="http://www.w3.org/2000/svg" xmlns:xlink="http://www.w3.org/1999/xlink" width="400"
  height="238.28125" viewBox="0, 0, 400,238.28125">
  <g id="svgg">
    <path id="path0"
      d="M0.000 60.310 L 0.000 120.620 58.880 120.620 L 117.759 120.620 117.759 179.499 L 117.759 238.379 178.308 238.379 L 238.856 238.379 238.856 178.069 L 238.856 117.759 179.738 117.759 L 120.620 117.759 120.620 58.880 L 120.620 0.000 60.310 0.000 L 0.000 0.000 0.000 60.310 M118.330 2.046 C 118.632 2.833,118.492 117.885,118.188 118.188 C 117.885 118.492,2.833 118.632,2.046 118.330 C 1.703 118.198,1.669 112.831,1.669 59.927 L 1.669 1.669 59.927 1.669 C 112.831 1.669,118.198 1.703,118.330 2.046 M92.216 12.162 C 90.148 13.254,89.652 15.421,91.368 15.868 L 92.510 16.165 92.996 15.129 C 93.543 13.968,94.437 13.578,95.397 14.084 C 97.023 14.941,96.355 17.163,94.472 17.163 C 93.709 17.163,93.683 17.195,93.683 18.124 C 93.683 19.138,93.732 19.181,95.136 19.413 C 96.961 19.715,97.035 22.528,95.234 23.122 C 94.107 23.494,92.491 22.655,92.491 21.699 C 92.491 21.047,91.969 20.739,90.864 20.739 L 89.808 20.739 89.924 21.940 C 90.428 27.188,99.390 26.552,99.403 21.268 C 99.405 20.404,98.803 19.195,98.094 18.637 L 97.442 18.124 98.184 17.278 C 100.991 14.081,96.260 10.025,92.216 12.162 M102.356 11.863 C 102.120 12.018,101.308 17.383,101.310 18.772 C 101.311 19.511,103.206 19.559,103.927 18.838 C 105.614 17.151,107.996 18.784,107.581 21.343 C 107.196 23.715,104.401 24.088,103.619 21.871 C 103.348 21.106,100.834 21.278,100.834 22.062 C 100.834 25.435,106.430 26.787,109.146 24.071 C 112.548 20.669,109.100 14.534,104.797 16.332 C 103.809 16.745,103.656 16.361,104.195 14.815 L 104.457 14.064 106.915 14.064 L 109.374 14.064 109.534 13.120 C 109.621 12.600,109.625 12.064,109.541 11.928 C 109.365 11.644,102.779 11.585,102.356 11.863 M230.234 27.407 C 230.191 27.535,229.377 27.711,228.427 27.799 C 227.476 27.887,226.698 28.051,226.698 28.163 C 226.698 28.275,226.430 28.367,226.103 28.367 C 225.775 28.367,225.507 28.460,225.507 28.574 C 225.507 28.688,225.062 28.841,224.519 28.914 C 223.975 28.986,223.466 29.145,223.386 29.267 C 223.307 29.388,222.762 29.550,222.174 29.627 C 221.587 29.704,221.069 29.881,221.022 30.020 C 220.976 30.160,220.678 30.274,220.362 30.274 C 220.045 30.274,219.785 30.374,219.785 30.496 C 219.785 30.619,219.544 30.795,219.249 30.888 C 218.513 31.120,217.878 31.902,217.878 32.575 C 217.878 32.883,217.771 33.135,217.640 33.135 C 217.509 33.135,217.402 33.456,217.402 33.850 C 217.402 34.243,217.509 34.565,217.640 34.565 C 217.771 34.565,217.878 34.709,217.878 34.886 C 217.878 35.506,218.725 36.174,219.726 36.343 C 220.282 36.437,220.797 36.611,220.871 36.731 C 220.945 36.851,221.247 36.949,221.543 36.949 C 222.790 36.949,224.023 37.832,224.194 38.850 C 224.283 39.376,224.454 39.867,224.574 39.941 C 224.698 40.018,224.791 43.302,224.791 47.557 C 224.791 52.287,224.879 55.092,225.030 55.185 C 225.184 55.280,225.268 59.756,225.268 67.833 C 225.268 76.008,225.186 80.334,225.030 80.334 C 224.891 80.334,224.791 81.124,224.791 82.227 C 224.791 83.268,224.696 84.179,224.579 84.251 C 224.463 84.323,224.300 84.653,224.216 84.984 C 224.014 85.792,223.352 86.532,222.831 86.532 C 222.598 86.532,222.408 86.634,222.408 86.759 C 222.408 86.884,222.033 87.057,221.576 87.143 C 220.227 87.396,219.309 88.528,219.309 89.937 C 219.309 91.171,219.989 92.491,220.624 92.491 C 220.805 92.491,221.039 92.632,221.144 92.803 C 221.960 94.141,240.763 94.262,240.763 92.930 C 240.763 92.820,240.907 92.729,241.084 92.729 C 241.666 92.729,242.357 91.910,242.521 91.024 C 242.722 89.942,242.463 88.200,242.101 88.200 C 241.952 88.200,241.705 87.999,241.552 87.753 C 241.398 87.507,240.890 87.234,240.422 87.146 C 239.954 87.059,239.571 86.884,239.571 86.759 C 239.571 86.634,239.327 86.532,239.028 86.532 C 238.507 86.532,237.664 85.806,237.664 85.357 C 237.664 85.238,237.546 85.102,237.403 85.054 C 236.779 84.846,236.229 70.563,236.803 69.487 C 237.037 69.048,237.185 68.927,237.186 69.173 C 237.186 69.394,237.402 69.643,237.664 69.726 C 237.926 69.809,238.141 70.031,238.141 70.219 C 238.141 70.407,238.308 70.560,238.512 70.560 C 238.717 70.560,238.825 70.655,238.753 70.772 C 238.681 70.888,239.050 71.359,239.573 71.817 C 240.096 72.276,240.524 72.770,240.524 72.915 C 240.524 73.060,240.846 73.486,241.240 73.862 C 241.633 74.238,241.955 74.617,241.955 74.706 C 241.955 74.794,242.330 75.242,242.789 75.701 C 243.248 76.160,243.625 76.612,243.627 76.706 C 243.629 76.800,243.946 77.253,244.332 77.712 C 244.717 78.170,245.278 78.840,245.579 79.200 C 245.880 79.559,246.260 80.007,246.424 80.196 C 246.588 80.384,246.722 80.605,246.722 80.687 C 246.722 80.769,247.044 81.179,247.436 81.598 C 247.829 82.017,248.151 82.456,248.151 82.574 C 248.152 82.692,248.528 83.153,248.987 83.599 C 249.446 84.044,249.821 84.511,249.821 84.636 C 249.821 84.761,249.926 84.863,250.055 84.863 C 250.184 84.863,250.356 85.131,250.438 85.459 C 250.521 85.787,250.720 86.055,250.882 86.055 C 251.043 86.055,251.297 86.323,251.446 86.651 C 251.596 86.979,251.828 87.247,251.962 87.247 C 252.095 87.247,252.205 87.365,252.205 87.510 C 252.205 87.810,253.466 89.488,254.282 90.275 C 254.582 90.563,254.827 90.905,254.827 91.033 C 254.827 91.162,255.036 91.333,255.292 91.414 C 255.547 91.496,255.823 91.771,255.904 92.026 C 255.985 92.282,256.200 92.491,256.381 92.491 C 256.562 92.491,256.796 92.635,256.901 92.811 C 257.087 93.123,257.412 93.252,259.118 93.692 C 260.315 94.001,267.636 93.976,268.772 93.659 C 269.297 93.512,270.006 93.368,270.349 93.339 C 270.692 93.309,271.121 93.163,271.303 93.013 C 271.484 92.864,271.955 92.480,272.348 92.160 C 273.769 91.005,273.186 87.008,271.596 87.008 C 271.420 87.008,271.275 86.901,271.275 86.770 C 271.275 86.639,270.927 86.528,270.501 86.524 C 270.074 86.520,269.518 86.359,269.263 86.166 C 269.009 85.974,268.499 85.816,268.131 85.816 C 267.763 85.816,267.461 85.716,267.461 85.594 C 267.461 85.472,267.220 85.296,266.925 85.202 C 266.630 85.109,266.215 84.834,266.003 84.590 C 265.791 84.347,265.546 84.148,265.459 84.148 C 265.371 84.148,264.985 83.826,264.601 83.433 C 264.216 83.039,263.791 82.718,263.655 82.718 C 263.520 82.718,263.409 82.568,263.409 82.385 C 263.409 82.203,263.248 81.992,263.051 81.916 C 262.855 81.841,262.694 81.615,262.694 81.414 C 262.694 81.213,262.533 81.049,262.336 81.049 C 262.139 81.049,261.979 80.952,261.979 80.835 C 261.979 80.717,261.442 80.073,260.787 79.403 C 260.131 78.734,259.595 78.117,259.595 78.032 C 259.595 77.948,259.219 77.514,258.760 77.069 C 258.302 76.623,257.926 76.103,257.926 75.912 C 257.926 75.722,257.765 75.566,257.569 75.566 C 257.372 75.566,257.211 75.444,257.211 75.296 C 257.211 75.147,256.943 74.776,256.615 74.473 C 256.287 74.169,256.019 73.834,256.019 73.728 C 256.019 73.622,255.751 73.246,255.423 72.892 C 255.095 72.539,254.827 72.138,254.827 72.001 C 254.827 71.864,254.666 71.752,254.470 71.752 C 254.273 71.752,254.112 71.591,254.112 71.395 C 254.112 71.198,254.012 71.037,253.890 71.037 C 253.767 71.037,253.603 70.833,253.524 70.585 C 253.445 70.336,253.009 69.738,252.554 69.257 C 252.100 68.775,251.728 68.330,251.728 68.268 C 251.728 68.207,251.272 67.555,250.715 66.820 C 248.866 64.383,248.214 62.694,249.122 62.694 C 249.244 62.694,249.344 62.533,249.344 62.336 C 249.344 62.139,249.447 61.979,249.572 61.979 C 249.868 61.979,251.013 60.833,251.013 60.537 C 251.013 60.412,251.174 60.310,251.371 60.310 C 251.567 60.310,251.728 60.149,251.728 59.952 C 251.728 59.756,251.889 59.595,252.086 59.595 C 252.282 59.595,252.443 59.434,252.443 59.237 C 252.443 59.041,252.614 58.880,252.823 58.880 C 253.032 58.880,253.259 58.666,253.327 58.406 C 253.395 58.145,253.553 57.995,253.678 58.072 C 253.803 58.149,253.965 57.987,254.037 57.712 C 254.109 57.436,254.289 57.209,254.438 57.207 C 254.586 57.205,255.055 56.910,255.480 56.552 C 256.706 55.515,257.861 54.861,258.761 54.692 C 259.219 54.606,259.595 54.440,259.595 54.324 C 259.595 54.207,260.024 54.112,260.548 54.112 C 261.073 54.112,261.502 54.017,261.502 53.901 C 261.502 53.785,261.967 53.620,262.536 53.534 C 265.874 53.034,266.135 47.957,262.854 47.342 C 262.373 47.251,261.979 47.075,261.979 46.950 C 261.979 46.825,261.174 46.722,260.191 46.722 C 259.158 46.722,258.403 46.622,258.403 46.484 C 258.403 46.338,257.290 46.246,255.542 46.246 C 253.794 46.246,252.682 46.338,252.682 46.484 C 252.682 46.627,251.737 46.722,250.325 46.722 C 248.698 46.722,247.757 46.833,247.286 47.078 C 246.910 47.274,246.439 47.435,246.239 47.436 C 243.660 47.446,243.683 52.703,246.266 53.522 C 247.304 53.852,247.857 55.304,246.945 55.304 C 246.822 55.304,246.722 55.453,246.722 55.636 C 246.722 55.819,246.561 56.030,246.365 56.105 C 246.168 56.181,246.007 56.407,246.007 56.608 C 246.007 56.808,245.901 56.973,245.770 56.973 C 245.640 56.973,245.044 57.455,244.445 58.045 C 243.847 58.635,243.263 59.118,243.149 59.118 C 243.034 59.118,242.872 59.333,242.789 59.595 C 242.706 59.857,242.484 60.072,242.296 60.072 C 242.108 60.072,241.955 60.232,241.955 60.429 C 241.955 60.626,241.839 60.787,241.698 60.787 C 241.557 60.787,241.125 61.103,240.737 61.490 C 240.350 61.878,239.608 62.434,239.087 62.726 C 238.567 63.019,238.141 63.399,238.141 63.572 C 238.141 64.155,237.043 63.924,236.749 63.278 C 236.394 62.500,236.370 48.872,236.717 45.216 C 236.852 43.797,236.986 39.437,237.015 35.526 L 237.068 28.416 236.400 27.796 C 235.696 27.141,230.439 26.810,230.234 27.407 M18.991 28.049 C 18.903 28.137,18.832 42.946,18.832 60.960 L 18.832 93.711 36.412 93.619 C 54.876 93.522,54.980 93.517,59.118 92.406 C 67.319 90.204,71.528 85.104,72.224 76.525 C 73.028 66.622,68.427 59.985,59.237 57.794 C 58.542 57.628,58.558 57.612,59.833 57.207 C 66.323 55.145,69.378 50.949,69.364 44.116 C 69.346 35.345,63.342 29.239,53.641 28.127 C 51.385 27.869,19.244 27.796,18.991 28.049 M282.718 28.849 C 281.359 29.086,280.543 29.519,279.430 30.591 C 278.159 31.816,277.950 32.104,277.950 32.628 C 277.950 32.885,277.816 33.140,277.652 33.195 C 277.241 33.333,277.250 37.470,277.661 37.607 C 277.820 37.660,277.950 37.806,277.950 37.932 C 277.950 38.637,280.314 40.763,281.098 40.763 C 281.464 40.763,281.764 40.858,281.764 40.974 C 281.764 41.283,283.106 41.536,284.744 41.536 C 286.381 41.536,287.723 41.283,287.723 40.974 C 287.723 40.858,288.032 40.763,288.409 40.763 C 288.787 40.763,289.229 40.602,289.392 40.405 C 289.555 40.209,289.784 40.048,289.900 40.048 C 290.188 40.048,291.538 38.828,291.538 38.568 C 291.538 38.453,291.746 38.135,292.001 37.862 C 292.275 37.568,292.530 36.840,292.624 36.084 C 292.846 34.311,292.564 32.349,292.001 31.745 C 291.746 31.471,291.538 31.172,291.538 31.080 C 291.538 30.757,290.017 29.559,289.607 29.559 C 289.380 29.559,289.158 29.454,289.114 29.325 C 288.914 28.737,285.022 28.447,282.718 28.849 M50.417 38.229 C 55.751 39.972,57.961 44.975,55.515 49.770 C 53.496 53.728,51.069 54.402,39.213 54.299 L 31.347 54.231 31.284 46.247 C 31.249 41.856,31.277 38.118,31.345 37.940 C 31.542 37.426,48.759 37.687,50.417 38.229 M395.709 43.981 C 395.546 44.178,395.265 44.338,395.084 44.338 C 394.903 44.338,394.756 44.444,394.756 44.572 C 394.756 44.701,394.487 44.873,394.160 44.956 C 393.832 45.038,393.564 45.201,393.564 45.318 C 393.564 45.435,393.403 45.530,393.206 45.530 C 393.010 45.530,392.849 45.638,392.849 45.769 C 392.849 45.900,392.655 46.007,392.417 46.007 C 392.180 46.007,391.778 46.165,391.524 46.357 C 391.269 46.550,390.828 46.711,390.544 46.715 C 390.260 46.719,389.987 46.845,389.937 46.995 C 389.883 47.158,389.282 47.267,388.439 47.267 C 387.595 47.267,386.995 47.158,386.940 46.995 C 386.889 46.842,386.356 46.722,385.725 46.722 C 385.107 46.722,384.479 46.600,384.330 46.451 C 384.181 46.303,383.033 46.127,381.779 46.061 C 380.525 45.996,379.499 45.850,379.499 45.736 C 379.499 45.623,377.944 45.530,376.043 45.530 C 374.142 45.530,372.586 45.624,372.586 45.737 C 372.586 45.851,371.776 45.996,370.786 46.060 C 369.796 46.124,368.862 46.299,368.712 46.449 C 368.562 46.599,368.138 46.722,367.771 46.722 C 367.404 46.722,367.104 46.825,367.104 46.950 C 367.104 47.075,366.728 47.248,366.269 47.334 C 365.810 47.420,365.435 47.574,365.435 47.676 C 365.435 47.779,365.164 47.930,364.833 48.014 C 364.502 48.097,364.030 48.366,363.784 48.612 C 363.538 48.858,363.112 49.130,362.836 49.218 C 362.561 49.305,362.336 49.477,362.336 49.599 C 362.336 49.721,362.175 49.821,361.979 49.821 C 361.782 49.821,361.621 49.982,361.621 50.179 C 361.621 50.375,361.487 50.537,361.323 50.537 C 360.976 50.537,359.237 52.323,359.237 52.679 C 359.237 52.811,359.103 52.921,358.939 52.922 C 358.657 52.924,358.496 53.176,357.607 55.006 C 357.400 55.432,357.146 55.781,357.042 55.781 C 356.938 55.781,356.853 56.040,356.853 56.357 C 356.853 56.674,356.736 56.972,356.592 57.020 C 356.448 57.068,356.273 57.613,356.203 58.232 C 356.133 58.850,355.983 59.356,355.869 59.356 C 355.755 59.356,355.662 59.725,355.662 60.177 C 355.662 60.628,355.554 61.063,355.423 61.144 C 355.291 61.226,355.185 62.299,355.185 63.542 C 355.185 64.884,355.281 65.793,355.423 65.793 C 355.554 65.793,355.662 66.168,355.662 66.627 C 355.662 67.086,355.776 67.461,355.917 67.461 C 356.057 67.461,356.145 67.703,356.113 67.998 C 356.030 68.737,356.367 70.083,356.634 70.083 C 356.755 70.083,356.853 70.352,356.853 70.679 C 356.853 71.007,356.953 71.275,357.076 71.275 C 357.198 71.275,357.370 71.501,357.457 71.778 C 357.629 72.319,357.859 72.618,359.416 74.325 C 360.357 75.358,360.395 75.449,359.947 75.615 C 359.682 75.713,359.402 75.957,359.326 76.156 C 359.249 76.356,359.043 76.520,358.868 76.520 C 358.403 76.520,356.138 78.764,356.138 79.225 C 356.138 79.442,355.975 79.619,355.776 79.619 C 355.576 79.619,355.283 79.914,355.125 80.274 C 354.966 80.635,354.768 80.983,354.684 81.049 C 354.245 81.391,354.031 84.903,354.349 86.557 C 354.528 87.490,355.968 89.548,356.734 89.966 C 356.996 90.109,357.297 90.361,357.402 90.524 C 357.506 90.688,357.801 90.822,358.057 90.822 C 358.696 90.822,358.686 91.778,358.045 91.945 C 357.783 92.014,357.569 92.165,357.569 92.280 C 357.569 92.396,357.434 92.491,357.269 92.491 C 356.928 92.491,354.470 94.963,354.470 95.306 C 354.470 95.430,354.309 95.665,354.112 95.828 C 353.915 95.992,353.754 96.380,353.754 96.692 C 353.754 97.004,353.647 97.259,353.516 97.259 C 353.374 97.259,353.278 98.172,353.278 99.523 C 353.278 100.874,353.374 101.788,353.516 101.788 C 353.647 101.788,353.754 102.088,353.754 102.455 C 353.754 102.822,353.874 103.242,354.020 103.389 C 354.346 103.714,354.886 104.621,355.090 105.185 C 355.172 105.414,355.392 105.602,355.578 105.602 C 355.763 105.602,355.985 105.785,356.071 106.009 C 356.331 106.687,357.108 107.458,357.835 107.759 C 358.213 107.915,358.522 108.138,358.522 108.253 C 358.522 108.368,358.683 108.462,358.880 108.462 C 359.076 108.462,359.237 108.558,359.237 108.675 C 359.237 108.792,359.505 108.955,359.833 109.037 C 360.161 109.119,360.429 109.292,360.429 109.421 C 360.429 109.549,360.601 109.654,360.810 109.654 C 361.170 109.654,362.409 110.132,363.361 110.637 C 363.597 110.763,364.241 110.961,364.791 111.079 C 365.342 111.196,366.222 111.419,366.746 111.574 C 368.874 112.202,380.738 112.382,381.526 111.798 C 381.766 111.620,382.024 111.560,384.625 111.085 C 385.411 110.941,386.091 110.721,386.134 110.596 C 386.178 110.472,386.527 110.369,386.909 110.369 C 387.291 110.369,387.604 110.263,387.604 110.134 C 387.604 110.004,388.033 109.830,388.558 109.746 C 389.082 109.662,389.511 109.514,389.511 109.418 C 389.511 109.321,389.994 109.058,390.584 108.833 C 391.174 108.607,391.657 108.336,391.657 108.230 C 391.657 108.124,391.898 107.975,392.193 107.899 C 392.488 107.822,393.051 107.497,393.445 107.176 C 395.864 105.201,397.139 103.992,397.139 103.676 C 397.139 103.547,397.300 103.380,397.497 103.304 C 397.694 103.229,397.855 103.018,397.855 102.835 C 397.855 102.652,397.960 102.503,398.088 102.503 C 398.217 102.503,398.394 102.217,398.482 101.868 C 398.569 101.519,398.808 101.038,399.013 100.799 C 400.117 99.510,400.467 91.952,399.525 89.754 C 398.651 87.715,395.449 85.101,393.825 85.101 C 393.419 85.101,393.087 84.994,393.087 84.863 C 393.087 84.732,392.879 84.625,392.624 84.625 C 392.370 84.625,392.095 84.517,392.014 84.386 C 391.922 84.237,389.514 84.148,385.578 84.148 C 381.643 84.148,379.234 84.237,379.142 84.386 C 379.061 84.517,378.411 84.625,377.697 84.625 C 376.984 84.625,376.400 84.732,376.400 84.863 C 376.400 85.012,375.010 85.101,372.706 85.101 C 370.401 85.101,369.011 85.012,369.011 84.863 C 369.011 84.732,368.635 84.625,368.176 84.625 C 367.718 84.625,367.342 84.517,367.342 84.386 C 367.342 84.255,367.038 84.148,366.665 84.148 C 365.928 84.148,364.243 82.883,364.243 82.330 C 364.243 82.150,364.136 82.002,364.005 82.002 C 363.874 82.002,363.766 81.681,363.766 81.287 C 363.766 80.894,363.874 80.572,364.005 80.572 C 364.136 80.572,364.243 80.371,364.243 80.125 C 364.243 79.878,364.404 79.543,364.601 79.380 C 364.797 79.217,364.958 78.921,364.958 78.722 C 364.958 78.299,367.600 78.425,368.142 78.874 C 368.309 79.014,369.244 79.185,370.218 79.254 C 371.193 79.324,372.501 79.445,373.124 79.522 C 374.391 79.680,380.198 79.186,380.578 78.888 C 380.712 78.782,381.383 78.621,382.068 78.531 C 382.753 78.440,383.313 78.272,383.313 78.158 C 383.313 78.043,383.528 77.950,383.790 77.950 C 384.052 77.950,384.267 77.843,384.267 77.712 C 384.267 77.580,384.427 77.473,384.623 77.473 C 385.120 77.473,386.889 76.685,386.889 76.463 C 386.889 76.363,387.041 76.281,387.227 76.281 C 387.689 76.281,390.419 74.114,390.590 73.612 C 390.666 73.389,390.931 73.142,391.180 73.063 C 391.429 72.984,391.699 72.711,391.780 72.455 C 391.861 72.200,392.027 71.990,392.150 71.990 C 392.272 71.990,392.372 71.830,392.372 71.633 C 392.372 71.436,392.471 71.275,392.593 71.275 C 392.714 71.275,392.968 70.980,393.156 70.620 C 393.345 70.259,393.674 69.642,393.887 69.249 C 394.101 68.856,394.277 68.346,394.277 68.117 C 394.278 67.887,394.374 67.700,394.491 67.700 C 394.608 67.700,394.759 67.351,394.827 66.925 C 394.894 66.499,395.064 65.721,395.205 65.197 C 395.584 63.779,395.519 58.953,395.106 57.807 C 394.917 57.282,394.761 56.658,394.759 56.419 C 394.757 56.180,394.595 55.824,394.398 55.627 C 393.998 55.227,393.910 54.112,394.279 54.112 C 394.410 54.112,394.725 53.924,394.979 53.695 C 395.233 53.465,395.725 53.063,396.072 52.801 C 397.803 51.495,398.398 50.577,399.250 47.903 C 399.954 45.693,397.002 42.423,395.709 43.981 M145.173 45.738 C 145.173 45.852,144.311 45.996,143.257 46.057 C 142.203 46.118,141.216 46.292,141.064 46.445 C 140.911 46.598,140.499 46.722,140.148 46.722 C 139.797 46.722,139.377 46.883,139.213 47.080 C 139.050 47.277,138.675 47.437,138.380 47.437 C 137.886 47.437,135.676 48.508,135.399 48.881 C 135.334 48.969,135.039 49.117,134.744 49.209 C 134.449 49.301,134.207 49.477,134.207 49.599 C 134.207 49.721,134.046 49.821,133.850 49.821 C 133.653 49.821,133.492 49.921,133.492 50.044 C 133.492 50.166,133.283 50.332,133.028 50.413 C 132.772 50.494,132.497 50.770,132.416 51.025 C 132.335 51.281,132.135 51.490,131.971 51.490 C 131.607 51.490,130.393 52.725,130.393 53.096 C 130.393 53.244,130.184 53.431,129.929 53.512 C 129.673 53.593,129.398 53.869,129.317 54.124 C 129.236 54.380,129.069 54.589,128.947 54.589 C 128.825 54.589,128.725 54.750,128.725 54.946 C 128.725 55.143,128.625 55.304,128.502 55.304 C 128.380 55.304,128.204 55.545,128.111 55.840 C 128.018 56.135,127.749 56.544,127.515 56.748 C 127.280 56.953,127.015 57.409,126.927 57.761 C 126.838 58.114,126.670 58.403,126.553 58.403 C 126.437 58.403,126.341 58.597,126.341 58.834 C 126.341 59.071,126.183 59.473,125.991 59.728 C 125.798 59.982,125.637 60.477,125.633 60.826 C 125.629 61.176,125.513 61.500,125.376 61.545 C 125.238 61.591,125.063 62.244,124.985 62.995 C 124.907 63.747,124.752 64.362,124.639 64.362 C 124.526 64.362,124.434 64.624,124.434 64.944 C 124.434 65.264,124.327 65.592,124.195 65.673 C 123.847 65.889,123.874 75.566,124.223 75.566 C 124.372 75.566,124.434 75.776,124.365 76.043 C 124.290 76.329,124.386 76.602,124.604 76.724 C 124.865 76.871,124.941 77.205,124.873 77.916 C 124.821 78.459,124.835 78.904,124.904 78.905 C 125.098 78.908,125.626 80.141,125.626 80.590 C 125.626 80.810,125.787 81.124,125.983 81.287 C 126.180 81.450,126.341 81.772,126.341 82.002 C 126.341 82.232,126.480 82.536,126.649 82.677 C 126.819 82.818,127.107 83.314,127.290 83.779 C 127.472 84.244,127.709 84.625,127.816 84.625 C 127.922 84.625,128.010 84.785,128.010 84.982 C 128.010 85.179,128.170 85.340,128.367 85.340 C 128.564 85.340,128.698 85.422,128.665 85.523 C 128.549 85.881,132.361 89.899,133.075 90.172 C 133.305 90.259,133.492 90.441,133.492 90.577 C 133.492 90.712,133.653 90.822,133.850 90.822 C 134.046 90.822,134.207 90.918,134.207 91.035 C 134.207 91.152,134.485 91.317,134.824 91.402 C 135.163 91.487,135.666 91.767,135.941 92.024 C 136.217 92.281,136.624 92.491,136.845 92.491 C 137.067 92.491,137.381 92.652,137.545 92.849 C 137.708 93.045,138.150 93.206,138.527 93.206 C 138.905 93.206,139.213 93.293,139.213 93.400 C 139.213 93.506,140.098 93.784,141.180 94.017 C 142.262 94.250,143.458 94.539,143.838 94.658 C 144.736 94.940,150.470 94.940,151.181 94.658 C 151.482 94.538,152.561 94.257,153.579 94.033 C 154.597 93.809,155.489 93.531,155.560 93.416 C 155.631 93.301,155.951 93.206,156.272 93.206 C 156.592 93.206,156.853 93.101,156.853 92.972 C 156.853 92.844,157.145 92.665,157.501 92.576 C 157.857 92.487,158.360 92.216,158.619 91.976 C 158.877 91.735,159.270 91.538,159.491 91.538 C 159.713 91.538,160.027 91.377,160.191 91.180 C 160.354 90.983,160.624 90.822,160.790 90.822 C 160.957 90.822,161.155 90.662,161.230 90.465 C 161.306 90.268,161.510 90.107,161.683 90.107 C 161.856 90.107,162.396 89.732,162.883 89.273 C 163.369 88.814,163.875 88.439,164.005 88.439 C 164.136 88.439,164.243 88.278,164.243 88.081 C 164.243 87.884,164.363 87.723,164.510 87.723 C 164.845 87.723,166.627 85.958,166.627 85.626 C 166.627 85.490,166.712 85.344,166.816 85.300 C 168.053 84.780,168.492 81.267,167.450 80.225 C 166.715 79.490,163.858 79.322,163.204 79.976 C 163.008 80.173,162.741 80.334,162.611 80.334 C 162.482 80.334,162.340 80.414,162.296 80.513 C 162.253 80.611,161.749 81.009,161.177 81.398 C 160.605 81.787,160.084 82.243,160.019 82.411 C 159.954 82.580,159.760 82.718,159.586 82.718 C 159.413 82.718,159.128 82.852,158.952 83.015 C 158.464 83.471,157.178 84.148,156.802 84.148 C 156.617 84.148,156.255 84.345,155.997 84.586 C 155.712 84.850,154.965 85.089,154.104 85.190 C 153.322 85.281,152.646 85.460,152.602 85.586 C 152.500 85.881,148.510 85.890,148.510 85.595 C 148.510 85.474,147.920 85.300,147.199 85.210 C 146.478 85.120,145.888 84.978,145.888 84.894 C 145.888 84.734,144.960 84.302,144.041 84.034 C 143.746 83.948,143.504 83.777,143.504 83.655 C 143.504 83.533,143.392 83.433,143.256 83.433 C 142.882 83.433,140.326 81.080,139.571 80.040 C 139.033 79.299,138.715 78.762,138.583 78.367 C 138.506 78.138,138.356 77.950,138.251 77.950 C 138.146 77.950,137.991 77.601,137.907 77.175 C 137.824 76.749,137.668 76.186,137.560 75.924 C 137.453 75.662,137.245 75.147,137.098 74.780 C 136.667 73.709,136.753 70.841,137.230 70.364 C 137.594 70.000,138.924 69.958,152.099 69.899 L 166.567 69.834 167.293 69.141 C 169.057 67.455,168.486 58.776,166.368 55.066 C 166.255 54.869,165.990 54.364,165.777 53.945 C 165.565 53.525,165.133 52.902,164.817 52.562 C 164.502 52.221,164.243 51.840,164.243 51.716 C 164.243 51.592,164.082 51.490,163.886 51.490 C 163.689 51.490,163.528 51.368,163.528 51.219 C 163.528 50.975,162.446 49.821,162.217 49.821 C 162.165 49.821,161.844 49.563,161.503 49.247 C 161.162 48.931,160.517 48.499,160.070 48.287 C 159.623 48.075,159.200 47.809,159.131 47.696 C 159.061 47.584,158.627 47.421,158.167 47.334 C 157.707 47.248,157.330 47.075,157.330 46.950 C 157.330 46.825,157.017 46.722,156.635 46.722 C 156.252 46.722,155.899 46.600,155.849 46.451 C 155.797 46.295,154.984 46.130,153.922 46.062 C 152.912 45.997,152.086 45.851,152.086 45.737 C 152.086 45.624,150.530 45.530,148.629 45.530 C 146.728 45.530,145.173 45.624,145.173 45.738 M189.988 45.736 C 189.988 45.849,189.000 45.997,187.792 46.066 C 186.497 46.140,185.560 46.300,185.508 46.457 C 185.459 46.603,184.999 46.722,184.485 46.722 C 183.972 46.722,183.552 46.823,183.552 46.946 C 183.552 47.069,183.076 47.241,182.495 47.328 C 181.914 47.415,181.381 47.637,181.311 47.820 C 181.241 48.003,180.985 48.153,180.744 48.153 C 180.502 48.153,180.088 48.354,179.824 48.600 C 179.560 48.846,179.110 49.122,178.826 49.212 C 178.541 49.303,178.308 49.477,178.308 49.599 C 178.308 49.721,178.192 49.821,178.051 49.821 C 177.646 49.821,176.567 51.009,175.610 52.508 C 173.999 55.030,174.446 59.489,176.400 60.400 C 176.597 60.492,177.026 60.722,177.354 60.912 C 178.355 61.491,182.122 61.158,182.122 60.490 C 182.122 60.391,182.278 60.310,182.470 60.310 C 182.864 60.310,184.544 58.713,185.503 57.427 C 186.388 56.239,188.592 54.112,188.937 54.112 C 189.094 54.112,189.284 53.951,189.359 53.754 C 189.435 53.558,189.714 53.397,189.981 53.397 C 190.247 53.397,190.465 53.302,190.465 53.186 C 190.465 52.934,191.230 52.673,192.372 52.536 C 194.840 52.238,196.234 52.350,196.815 52.891 C 197.079 53.137,197.523 53.411,197.801 53.499 C 198.079 53.587,198.373 53.869,198.454 54.124 C 198.536 54.380,198.702 54.589,198.824 54.589 C 198.946 54.589,199.046 54.704,199.046 54.844 C 199.046 54.985,199.207 55.261,199.404 55.457 C 199.601 55.654,199.762 56.161,199.762 56.584 C 199.762 57.008,199.888 57.481,200.043 57.635 C 200.221 57.814,200.364 59.145,200.432 61.269 L 200.538 64.620 198.899 64.461 C 197.997 64.374,197.157 64.209,197.032 64.094 C 196.724 63.810,187.366 63.823,187.366 64.108 C 187.366 64.230,186.505 64.405,185.454 64.496 C 184.402 64.588,183.484 64.756,183.413 64.870 C 183.343 64.984,183.077 65.077,182.823 65.077 C 182.568 65.077,182.360 65.173,182.360 65.289 C 182.360 65.405,181.877 65.572,181.287 65.661 C 180.697 65.749,180.215 65.923,180.215 66.046 C 180.215 66.169,180.006 66.269,179.752 66.269 C 179.497 66.269,179.219 66.383,179.133 66.522 C 179.047 66.662,178.745 66.876,178.463 66.999 C 177.707 67.327,177.054 67.765,176.614 68.236 C 176.400 68.465,176.104 68.653,175.955 68.653 C 175.807 68.653,175.685 68.814,175.685 69.011 C 175.685 69.207,175.524 69.368,175.328 69.368 C 175.131 69.368,174.970 69.449,174.970 69.547 C 174.969 69.645,174.645 70.101,174.249 70.560 C 173.852 71.019,173.466 71.636,173.389 71.931 C 173.312 72.226,173.163 72.467,173.057 72.467 C 172.951 72.467,172.683 72.977,172.462 73.600 C 172.240 74.222,171.936 74.989,171.786 75.304 C 171.446 76.019,171.424 84.576,171.762 84.818 C 171.889 84.908,172.197 85.599,172.447 86.353 C 172.698 87.107,172.992 87.723,173.102 87.723 C 173.212 87.723,173.302 87.838,173.302 87.978 C 173.302 88.631,175.896 91.538,176.480 91.538 C 176.681 91.538,176.913 91.752,176.996 92.014 C 177.080 92.277,177.288 92.491,177.460 92.491 C 177.632 92.491,177.906 92.652,178.069 92.849 C 178.232 93.045,178.621 93.206,178.933 93.206 C 179.244 93.206,179.499 93.305,179.499 93.426 C 179.499 93.546,179.848 93.717,180.274 93.804 C 180.700 93.892,181.642 94.174,182.367 94.432 C 184.911 95.336,193.162 94.657,194.376 93.443 C 194.506 93.313,194.806 93.206,195.042 93.206 C 195.278 93.206,195.471 93.107,195.471 92.987 C 195.471 92.866,195.785 92.698,196.169 92.614 C 196.554 92.529,197.005 92.295,197.173 92.093 C 197.340 91.891,197.696 91.629,197.964 91.510 C 198.232 91.391,198.876 91.040,199.397 90.729 C 200.382 90.140,201.402 90.397,201.423 91.240 C 201.427 91.403,201.591 91.538,201.788 91.538 C 201.985 91.538,202.145 91.702,202.145 91.903 C 202.145 92.103,202.306 92.329,202.503 92.405 C 202.700 92.480,202.861 92.691,202.861 92.874 C 202.861 93.057,203.075 93.206,203.337 93.206 C 203.602 93.206,203.814 93.365,203.814 93.564 C 203.814 93.760,203.975 93.921,204.172 93.921 C 204.368 93.921,204.529 94.007,204.529 94.112 C 204.529 95.713,213.266 94.632,215.214 92.789 C 215.387 92.625,215.632 92.491,215.758 92.491 C 216.038 92.491,217.402 91.124,217.402 90.843 C 217.402 90.733,217.563 90.509,217.759 90.346 C 218.204 89.977,218.238 87.530,217.805 87.008 C 217.306 86.406,215.977 85.816,215.118 85.816 C 214.669 85.816,214.303 85.721,214.303 85.605 C 214.303 85.488,213.949 85.326,213.517 85.245 C 212.127 84.985,212.092 84.640,211.986 70.449 C 211.934 63.505,211.802 57.712,211.693 57.577 C 211.584 57.441,211.421 56.633,211.329 55.781 C 211.173 54.322,210.107 51.490,209.714 51.490 C 209.616 51.490,209.535 51.326,209.535 51.125 C 209.535 50.924,209.374 50.698,209.178 50.623 C 208.981 50.547,208.820 50.336,208.820 50.153 C 208.820 49.971,208.671 49.821,208.488 49.821 C 208.305 49.821,208.094 49.660,208.019 49.464 C 207.943 49.267,207.717 49.106,207.516 49.106 C 207.316 49.106,207.151 49.018,207.151 48.910 C 207.151 48.629,205.416 47.532,204.678 47.347 C 204.334 47.261,204.052 47.085,204.052 46.956 C 204.052 46.828,203.686 46.722,203.238 46.722 C 202.790 46.722,202.382 46.599,202.332 46.447 C 202.277 46.282,201.456 46.127,200.281 46.059 C 199.203 45.996,198.264 45.852,198.193 45.738 C 198.026 45.468,189.988 45.466,189.988 45.736 M287.386 45.736 C 287.317 45.848,286.536 45.999,285.652 46.070 C 284.768 46.141,284.005 46.317,283.957 46.461 C 283.909 46.605,283.515 46.722,283.082 46.722 C 282.650 46.722,281.988 46.883,281.612 47.078 C 281.237 47.274,280.635 47.435,280.274 47.436 C 279.914 47.437,279.619 47.533,279.619 47.649 C 279.619 47.766,279.234 47.933,278.763 48.022 C 277.709 48.219,276.758 48.639,276.758 48.906 C 276.758 49.016,276.503 49.106,276.191 49.106 C 275.880 49.106,275.491 49.267,275.328 49.464 C 275.165 49.660,274.890 49.821,274.719 49.821 C 274.547 49.821,274.338 50.036,274.255 50.298 C 274.172 50.560,274.004 50.775,273.881 50.775 C 273.759 50.775,273.659 50.936,273.659 51.132 C 273.659 51.329,273.552 51.490,273.421 51.490 C 273.290 51.490,273.183 51.892,273.183 52.384 C 273.183 53.301,274.188 54.827,274.791 54.827 C 274.947 54.827,275.457 55.042,275.924 55.304 C 276.391 55.566,277.021 55.781,277.324 55.781 C 278.853 55.781,279.601 57.391,279.786 61.085 C 279.844 62.232,279.990 63.170,280.112 63.170 C 280.245 63.170,280.334 67.085,280.334 72.944 C 280.334 79.301,280.250 82.718,280.095 82.718 C 279.964 82.718,279.857 82.973,279.857 83.284 C 279.857 84.507,278.679 86.524,277.957 86.539 C 277.756 86.543,277.384 86.704,277.130 86.897 C 276.875 87.089,276.492 87.247,276.277 87.247 C 275.836 87.247,274.851 88.204,274.851 88.633 C 274.851 88.788,274.744 88.915,274.613 88.915 C 274.482 88.915,274.374 89.344,274.374 89.869 C 274.374 90.393,274.482 90.822,274.613 90.822 C 274.744 90.822,274.851 91.074,274.851 91.381 C 274.851 91.958,275.510 92.729,276.002 92.729 C 276.156 92.729,276.281 92.825,276.281 92.941 C 276.281 93.152,276.692 93.260,279.142 93.691 C 280.520 93.933,291.422 94.008,292.776 93.785 C 294.327 93.528,295.715 93.109,296.024 92.803 C 296.197 92.631,296.492 92.491,296.680 92.491 C 296.867 92.491,297.020 92.343,297.020 92.163 C 297.020 91.982,297.181 91.701,297.378 91.538 C 298.158 90.890,297.522 87.723,296.611 87.723 C 296.443 87.723,296.305 87.616,296.305 87.485 C 296.305 87.354,296.057 87.247,295.755 87.247 C 295.452 87.247,294.996 87.089,294.742 86.897 C 294.487 86.704,294.115 86.543,293.915 86.539 C 291.982 86.499,291.409 80.420,292.036 66.627 C 292.762 50.654,292.605 46.418,291.274 46.070 C 291.026 46.005,290.822 45.857,290.822 45.741 C 290.822 45.469,287.554 45.464,287.386 45.736 M328.248 45.769 C 328.248 45.900,327.792 46.008,327.235 46.009 C 326.678 46.009,325.914 46.170,325.539 46.366 C 325.163 46.562,324.665 46.722,324.432 46.722 C 324.199 46.722,323.946 46.883,323.871 47.080 C 323.795 47.277,323.616 47.437,323.472 47.437 C 323.066 47.437,321.591 48.606,320.089 50.117 C 318.379 51.837,318.236 51.833,318.236 50.056 C 318.236 48.612,317.798 46.722,317.463 46.722 C 317.364 46.722,317.282 46.550,317.282 46.339 C 317.282 45.838,310.119 45.924,309.951 46.427 C 309.895 46.595,309.450 46.722,308.919 46.722 C 308.406 46.722,307.986 46.817,307.986 46.934 C 307.986 47.050,307.502 47.217,306.912 47.306 C 306.321 47.395,305.543 47.621,305.183 47.808 C 304.824 47.996,304.348 48.150,304.126 48.151 C 303.904 48.152,303.657 48.260,303.576 48.391 C 303.495 48.522,303.220 48.629,302.966 48.629 C 302.711 48.629,302.503 48.737,302.503 48.868 C 302.503 48.999,302.314 49.106,302.083 49.106 C 301.853 49.106,301.375 49.374,301.021 49.702 C 300.668 50.030,300.266 50.298,300.130 50.298 C 299.993 50.298,299.881 50.459,299.881 50.656 C 299.881 50.852,299.774 51.013,299.642 51.013 C 299.511 51.013,299.404 51.634,299.404 52.398 C 299.404 53.910,299.947 54.827,300.844 54.827 C 301.101 54.827,301.311 54.934,301.311 55.066 C 301.311 55.197,301.519 55.304,301.774 55.304 C 302.028 55.304,302.294 55.397,302.364 55.510 C 302.434 55.624,302.866 55.777,303.324 55.852 C 304.235 55.999,305.212 56.766,305.301 57.403 C 305.332 57.625,305.426 58.370,305.510 59.058 C 305.594 59.747,305.756 60.310,305.871 60.310 C 305.986 60.310,306.079 65.446,306.079 71.871 C 306.079 79.420,305.996 83.433,305.840 83.433 C 305.709 83.433,305.602 83.683,305.602 83.989 C 305.602 84.295,305.521 84.626,305.423 84.724 C 305.325 84.822,305.244 84.977,305.244 85.067 C 305.244 85.438,304.195 86.532,303.839 86.532 C 303.629 86.532,303.456 86.629,303.456 86.749 C 303.456 86.869,303.040 87.037,302.532 87.123 C 301.128 87.360,300.632 88.090,300.570 90.013 C 300.515 91.720,300.442 91.587,302.157 92.939 C 302.448 93.168,304.283 93.593,305.877 93.800 C 307.620 94.026,317.496 93.942,318.951 93.689 C 321.728 93.205,321.924 93.131,322.818 92.227 C 324.552 90.476,323.659 87.570,321.248 87.118 C 320.771 87.028,320.381 86.860,320.381 86.743 C 320.381 86.627,320.183 86.532,319.941 86.532 C 319.077 86.532,318.455 85.681,318.170 84.106 C 317.588 80.902,318.018 63.680,318.685 63.458 C 318.831 63.409,318.951 62.995,318.951 62.538 C 318.951 62.080,319.112 61.545,319.309 61.349 C 319.505 61.152,319.666 60.784,319.666 60.531 C 319.666 60.278,319.750 60.072,319.853 60.072 C 319.956 60.072,320.216 59.777,320.430 59.416 C 320.996 58.465,322.167 57.211,322.488 57.211 C 322.641 57.211,322.765 57.111,322.765 56.989 C 322.765 56.866,323.007 56.691,323.302 56.599 C 323.597 56.507,323.900 56.335,323.976 56.217 C 324.535 55.351,330.777 55.382,331.067 56.252 C 331.112 56.386,331.255 56.496,331.385 56.496 C 331.515 56.496,331.944 56.818,332.337 57.211 C 332.730 57.604,333.151 57.926,333.272 57.926 C 333.393 57.926,333.492 58.187,333.492 58.505 C 333.492 58.823,333.653 59.245,333.850 59.442 C 334.046 59.638,334.207 60.066,334.207 60.392 C 334.207 60.718,334.328 61.026,334.476 61.075 C 334.640 61.129,334.793 62.073,334.866 63.479 C 334.933 64.751,335.077 65.793,335.187 65.793 C 335.414 65.793,335.493 68.255,335.494 75.328 C 335.496 81.303,335.418 83.194,335.172 83.194 C 335.068 83.194,334.932 83.727,334.869 84.379 C 334.751 85.615,334.060 86.507,333.208 86.524 C 332.987 86.528,332.744 86.631,332.669 86.752 C 332.594 86.873,332.214 87.042,331.823 87.128 C 328.210 87.921,328.743 92.421,332.564 93.388 C 335.929 94.239,350.894 93.875,350.894 92.942 C 350.894 92.825,351.038 92.729,351.215 92.729 C 353.634 92.729,353.089 87.539,350.627 87.123 C 350.118 87.037,349.702 86.869,349.702 86.749 C 349.702 86.629,349.559 86.532,349.384 86.532 C 348.971 86.532,347.930 85.360,347.680 84.612 C 347.572 84.291,347.419 78.440,347.341 71.609 C 347.228 61.883,347.129 59.107,346.885 58.812 C 346.713 58.605,346.510 57.838,346.435 57.108 C 346.360 56.378,346.206 55.781,346.093 55.781 C 345.980 55.781,345.888 55.566,345.888 55.304 C 345.888 55.042,345.781 54.827,345.650 54.827 C 345.518 54.827,345.411 54.633,345.411 54.396 C 345.411 54.159,345.254 53.757,345.061 53.502 C 344.869 53.248,344.708 52.852,344.704 52.622 C 344.699 52.393,344.535 52.205,344.338 52.205 C 344.142 52.205,343.981 52.093,343.981 51.957 C 343.981 51.517,342.721 50.133,341.277 48.987 C 340.781 48.594,340.168 48.084,339.914 47.855 C 339.660 47.625,339.311 47.437,339.140 47.437 C 338.968 47.437,338.619 47.280,338.365 47.087 C 338.110 46.895,337.670 46.734,337.386 46.730 C 337.102 46.726,336.827 46.597,336.776 46.443 C 336.724 46.286,336.035 46.117,335.207 46.057 C 334.395 45.998,333.731 45.855,333.731 45.740 C 333.731 45.625,332.497 45.530,330.989 45.530 C 329.321 45.530,328.248 45.624,328.248 45.769 M103.218 45.921 C 97.975 46.686,94.050 48.950,92.179 52.287 L 91.657 53.219 91.538 50.149 L 91.418 47.080 85.757 47.016 L 80.095 46.952 80.095 70.317 L 80.095 93.683 85.672 93.683 C 90.537 93.683,91.267 93.635,91.393 93.306 C 91.472 93.099,91.538 87.382,91.538 80.603 C 91.538 67.279,91.570 66.874,92.860 64.211 C 94.815 60.175,99.465 57.449,104.399 57.449 C 106.168 57.449,106.079 57.762,106.079 51.609 C 106.079 45.212,106.215 45.483,103.218 45.921 M149.734 52.719 C 150.241 52.871,150.656 53.086,150.656 53.196 C 150.656 53.307,150.927 53.397,151.259 53.397 C 151.591 53.397,151.924 53.558,152.000 53.754 C 152.075 53.951,152.282 54.112,152.460 54.112 C 152.885 54.112,154.734 55.929,155.310 56.913 C 155.560 57.339,155.848 57.688,155.951 57.688 C 156.054 57.688,156.138 57.935,156.138 58.238 C 156.138 58.541,156.296 58.997,156.488 59.251 C 156.719 59.556,156.841 60.301,156.846 61.436 C 156.857 63.991,157.274 63.886,147.111 63.886 C 137.198 63.886,137.202 63.886,137.390 61.859 C 137.549 60.144,138.037 57.926,138.256 57.926 C 138.359 57.926,138.506 57.738,138.583 57.509 C 138.976 56.339,141.318 53.969,142.551 53.495 C 142.747 53.419,143.284 53.154,143.743 52.906 C 144.726 52.374,148.218 52.265,149.734 52.719 M377.831 52.682 C 377.831 52.813,378.045 52.920,378.308 52.920 C 378.570 52.920,378.784 53.015,378.784 53.131 C 378.784 53.247,378.972 53.404,379.201 53.481 C 379.979 53.742,381.406 54.814,381.406 55.136 C 381.406 55.247,381.541 55.488,381.704 55.670 C 382.463 56.516,382.598 56.745,382.598 57.181 C 382.598 57.438,382.708 57.685,382.842 57.729 C 382.977 57.774,383.146 58.239,383.219 58.762 C 383.292 59.286,383.459 59.938,383.590 60.211 C 384.053 61.176,383.427 66.744,382.833 66.945 C 382.704 66.988,382.598 67.141,382.598 67.284 C 382.598 67.808,381.755 69.356,381.466 69.362 C 381.302 69.366,381.168 69.471,381.168 69.596 C 381.168 70.197,379.969 71.013,377.525 72.075 C 376.384 72.571,373.837 72.587,373.196 72.102 C 372.942 71.910,372.486 71.752,372.183 71.752 C 371.881 71.752,371.633 71.647,371.633 71.518 C 371.633 71.390,371.365 71.217,371.037 71.135 C 370.709 71.053,370.441 70.893,370.441 70.781 C 370.441 70.669,370.119 70.247,369.726 69.845 C 369.333 69.443,369.011 69.010,369.011 68.883 C 369.011 68.757,368.903 68.653,368.772 68.653 C 368.641 68.653,368.534 68.439,368.534 68.176 C 368.534 67.914,368.445 67.700,368.336 67.700 C 367.541 67.700,367.159 60.841,367.822 58.462 C 368.013 57.774,368.252 57.211,368.352 57.211 C 368.452 57.211,368.534 57.050,368.534 56.853 C 368.534 56.657,368.641 56.496,368.772 56.496 C 368.903 56.496,369.011 56.340,369.011 56.150 C 369.011 55.699,371.313 53.397,371.763 53.397 C 371.954 53.397,372.110 53.315,372.110 53.215 C 372.110 53.115,372.351 52.914,372.646 52.768 C 373.329 52.429,377.831 52.355,377.831 52.682 M51.371 63.981 C 57.707 65.246,60.834 70.504,58.974 76.768 C 57.467 81.841,55.372 82.549,41.538 82.664 L 31.228 82.749 31.228 73.357 C 31.228 68.191,31.299 63.894,31.387 63.806 C 31.718 63.474,49.617 63.631,51.371 63.981 M196.782 71.043 C 197.962 71.176,199.287 71.344,199.727 71.415 L 200.527 71.545 200.435 76.118 C 200.377 79.002,200.240 80.867,200.065 81.168 C 199.913 81.430,199.723 82.047,199.645 82.539 C 199.566 83.030,199.399 83.433,199.274 83.433 C 199.149 83.433,199.046 83.594,199.046 83.790 C 199.046 83.987,198.886 84.148,198.689 84.148 C 198.490 84.148,198.331 84.360,198.331 84.625 C 198.331 84.898,198.172 85.101,197.958 85.101 C 197.753 85.101,197.351 85.234,197.064 85.396 C 195.031 86.546,189.527 86.556,188.362 85.411 C 188.189 85.241,187.786 85.101,187.468 85.101 C 187.150 85.101,186.889 84.962,186.889 84.792 C 186.889 84.622,186.572 84.220,186.184 83.898 C 185.796 83.577,185.475 83.179,185.469 83.015 C 185.463 82.852,185.352 82.718,185.221 82.718 C 185.089 82.718,184.982 82.557,184.982 82.360 C 184.982 82.163,184.893 82.002,184.785 82.002 C 184.063 82.002,184.016 75.933,184.733 75.328 C 184.810 75.262,185.066 74.907,185.301 74.537 C 185.959 73.504,186.489 72.944,186.809 72.944 C 186.970 72.944,187.241 72.744,187.412 72.499 C 187.583 72.255,188.072 71.978,188.498 71.884 C 188.924 71.791,189.273 71.632,189.273 71.532 C 189.273 71.352,192.171 70.907,193.802 70.836 C 194.261 70.816,195.602 70.909,196.782 71.043 M386.799 93.741 C 388.690 94.247,389.792 95.510,389.811 97.193 C 389.829 98.856,389.753 99.172,389.213 99.670 C 388.984 99.882,388.796 100.161,388.796 100.289 C 388.796 100.562,387.318 102.127,386.851 102.349 C 386.368 102.577,385.637 103.063,385.273 103.397 C 385.094 103.561,384.694 103.695,384.383 103.695 C 384.073 103.695,383.752 103.802,383.671 103.933 C 383.590 104.064,383.316 104.172,383.061 104.172 C 382.807 104.172,382.598 104.270,382.598 104.391 C 382.598 104.512,381.901 104.685,381.049 104.776 C 380.197 104.868,379.499 105.037,379.499 105.153 C 379.499 105.269,377.998 105.364,376.162 105.364 C 374.327 105.364,372.825 105.269,372.825 105.153 C 372.825 105.037,372.128 104.868,371.275 104.776 C 370.423 104.685,369.726 104.538,369.726 104.449 C 369.726 104.282,368.815 103.854,367.878 103.581 C 367.583 103.495,367.342 103.324,367.342 103.202 C 367.342 103.080,367.232 102.980,367.097 102.980 C 366.609 102.980,365.146 101.412,364.679 100.388 C 363.922 98.726,364.350 96.299,365.676 94.739 L 366.269 94.041 372.706 94.006 C 376.246 93.987,379.785 93.866,380.572 93.737 C 382.644 93.397,385.520 93.399,386.799 93.741 M236.651 178.367 L 236.711 236.710 178.427 236.710 L 120.143 236.710 120.143 178.447 C 120.143 132.059,120.204 120.158,120.441 120.062 C 120.605 119.996,146.806 119.960,178.665 119.983 L 236.591 120.024 236.651 178.367 M222.032 129.540 C 218.247 131.187,217.751 140.450,221.339 142.482 C 224.493 144.268,228.129 142.228,228.129 138.672 C 228.129 135.222,225.652 133.343,222.721 134.568 C 221.661 135.011,221.604 134.959,221.808 133.750 C 222.165 131.642,223.979 130.715,225.112 132.062 C 226.166 133.315,228.387 133.012,227.884 131.685 C 227.091 129.591,224.279 128.561,222.032 129.540 M208.837 131.645 C 208.677 132.858,208.464 134.466,208.364 135.219 C 208.264 135.973,208.236 136.643,208.302 136.709 C 208.591 136.998,210.747 136.817,210.871 136.494 C 211.239 135.535,212.991 135.494,214.005 136.422 C 214.959 137.295,214.578 140.304,213.458 140.734 C 212.290 141.182,211.169 140.756,210.731 139.699 C 210.200 138.417,207.572 138.742,207.868 140.053 C 208.449 142.631,212.011 143.895,214.943 142.564 C 217.624 141.347,218.284 136.810,216.090 134.683 C 215.153 133.776,212.568 133.366,211.473 133.952 C 211.001 134.205,210.965 134.167,210.965 133.401 C 210.965 131.845,211.003 131.824,213.718 131.824 C 216.435 131.824,216.325 131.876,216.561 130.453 L 216.728 129.440 212.928 129.440 L 209.128 129.440 208.837 131.645 M225.194 137.106 C 226.221 137.957,225.596 140.471,224.293 140.731 C 222.485 141.093,221.337 139.370,222.086 137.418 C 222.453 136.461,224.205 136.285,225.194 137.106 M282.527 145.812 C 281.393 145.876,280.498 146.072,279.957 146.375 C 279.501 146.632,278.782 146.842,278.360 146.843 C 277.938 146.844,277.285 147.005,276.910 147.201 C 276.534 147.396,276.090 147.557,275.924 147.557 C 275.757 147.557,275.313 147.717,274.938 147.913 C 274.562 148.109,274.014 148.269,273.719 148.270 C 273.424 148.271,273.182 148.370,273.182 148.491 C 273.182 148.612,272.861 148.781,272.467 148.868 C 272.074 148.954,271.752 149.124,271.752 149.244 C 271.752 149.365,271.640 149.464,271.503 149.464 C 271.366 149.464,270.970 149.728,270.621 150.051 C 269.194 151.374,269.812 154.946,271.467 154.946 C 271.740 154.946,272.023 155.044,272.097 155.164 C 272.171 155.284,272.678 155.457,273.223 155.549 C 274.286 155.729,274.517 155.867,275.590 156.966 C 276.102 157.491,276.281 157.905,276.281 158.561 C 276.281 159.049,276.389 159.514,276.520 159.595 C 276.777 159.754,276.859 165.372,276.613 166.011 C 276.455 166.425,275.089 166.549,275.089 166.150 C 275.089 166.019,274.928 165.912,274.732 165.912 C 274.535 165.912,274.374 165.805,274.374 165.673 C 274.374 165.542,274.133 165.434,273.838 165.434 C 273.543 165.433,272.994 165.272,272.619 165.076 C 272.243 164.880,271.594 164.720,271.177 164.720 C 270.759 164.720,270.283 164.586,270.119 164.422 C 269.902 164.205,268.616 164.124,265.383 164.124 C 262.045 164.124,260.921 164.198,260.846 164.422 C 260.785 164.606,260.301 164.720,259.575 164.720 C 258.930 164.720,258.403 164.826,258.403 164.955 C 258.403 165.085,257.980 165.259,257.464 165.341 C 256.948 165.424,256.309 165.693,256.044 165.940 C 255.779 166.187,255.350 166.389,255.090 166.389 C 254.830 166.389,254.547 166.502,254.461 166.642 C 254.374 166.781,254.073 166.995,253.791 167.118 C 252.939 167.488,252.366 167.899,251.567 168.713 C 251.149 169.139,250.738 169.487,250.653 169.487 C 250.453 169.487,249.106 170.835,249.106 171.035 C 249.106 171.119,248.757 171.530,248.331 171.949 C 247.573 172.693,247.123 173.299,246.794 174.017 C 246.704 174.213,246.490 174.516,246.318 174.689 C 246.147 174.863,246.007 175.239,246.007 175.526 C 246.007 175.813,245.806 176.173,245.560 176.327 C 245.314 176.480,245.041 176.989,244.953 177.457 C 244.865 177.925,244.691 178.308,244.566 178.308 C 244.441 178.308,244.338 178.509,244.338 178.755 C 244.338 179.001,244.178 179.588,243.981 180.059 C 243.784 180.529,243.623 181.287,243.623 181.742 C 243.623 182.198,243.516 182.636,243.385 182.718 C 243.254 182.799,243.147 183.174,243.147 183.552 C 243.147 183.930,243.039 184.305,242.908 184.386 C 242.761 184.477,242.670 186.569,242.670 189.869 C 242.670 193.169,242.761 195.260,242.908 195.352 C 243.039 195.433,243.147 195.868,243.147 196.319 C 243.147 196.770,243.254 197.139,243.385 197.139 C 243.516 197.139,243.623 197.548,243.623 198.047 C 243.623 198.547,243.781 199.164,243.973 199.418 C 244.166 199.673,244.327 200.122,244.331 200.417 C 244.335 200.712,244.434 200.954,244.550 200.954 C 244.667 200.954,244.833 201.329,244.919 201.788 C 245.005 202.247,245.178 202.622,245.303 202.622 C 245.428 202.622,245.530 202.783,245.530 202.980 C 245.530 203.176,245.638 203.337,245.769 203.337 C 245.900 203.337,246.007 203.491,246.007 203.678 C 246.007 203.865,246.141 204.165,246.305 204.343 C 246.740 204.818,247.193 205.542,247.353 206.019 C 247.430 206.249,247.629 206.436,247.795 206.436 C 247.961 206.436,248.153 206.651,248.222 206.913 C 248.290 207.175,248.517 207.390,248.726 207.390 C 248.935 207.390,249.106 207.551,249.106 207.747 C 249.106 207.944,249.267 208.105,249.464 208.105 C 249.660 208.105,249.821 208.266,249.821 208.462 C 249.821 208.659,249.982 208.820,250.179 208.820 C 250.375 208.820,250.536 208.910,250.536 209.021 C 250.536 209.131,250.912 209.424,251.371 209.671 C 251.830 209.918,252.205 210.192,252.205 210.279 C 252.205 210.366,252.473 210.504,252.801 210.587 C 253.129 210.669,253.397 210.841,253.397 210.970 C 253.397 211.099,253.590 211.204,253.826 211.204 C 254.062 211.204,254.357 211.294,254.482 211.405 C 255.737 212.520,266.264 213.608,266.836 212.681 C 266.901 212.576,267.501 212.341,268.170 212.159 C 268.838 211.977,269.502 211.688,269.644 211.516 C 269.787 211.344,270.105 211.204,270.351 211.204 C 270.597 211.204,270.799 211.099,270.799 210.970 C 270.799 210.841,271.083 210.665,271.431 210.578 C 272.272 210.366,273.636 209.485,273.649 209.144 C 273.655 208.994,273.927 208.804,274.255 208.722 C 274.583 208.640,274.851 208.467,274.851 208.339 C 274.851 208.210,275.012 208.105,275.209 208.105 C 275.405 208.105,275.566 208.021,275.566 207.918 C 275.566 207.734,276.814 206.913,277.093 206.913 C 277.171 206.913,277.238 208.013,277.243 209.356 C 277.254 212.863,277.331 212.936,280.861 212.792 C 283.794 212.673,285.271 212.461,285.475 212.131 C 285.547 212.014,285.841 211.919,286.128 211.920 C 286.667 211.921,288.462 211.376,289.786 210.810 C 290.199 210.633,290.762 210.489,291.037 210.489 C 291.312 210.489,291.538 210.393,291.538 210.277 C 291.538 210.160,291.894 209.998,292.330 209.916 C 292.766 209.835,293.352 209.554,293.631 209.294 C 293.911 209.033,294.252 208.820,294.388 208.820 C 294.525 208.820,294.636 208.668,294.636 208.482 C 294.636 208.297,294.758 208.104,294.907 208.054 C 295.861 207.737,295.098 204.783,293.970 204.425 C 293.681 204.334,293.445 204.159,293.445 204.036 C 293.445 203.914,292.968 203.814,292.386 203.814 C 291.804 203.814,291.268 203.719,291.196 203.602 C 291.124 203.486,290.783 203.319,290.438 203.233 C 289.514 203.001,289.275 202.656,288.937 201.073 C 288.238 197.790,288.076 169.895,288.666 154.421 C 288.857 149.412,288.699 147.306,288.085 146.693 C 287.910 146.517,287.728 146.260,287.682 146.121 C 287.584 145.827,285.016 145.673,282.527 145.812 M128.120 146.424 C 128.057 146.588,128.034 161.418,128.067 179.380 L 128.129 212.038 144.696 212.037 C 161.693 212.036,162.920 211.982,167.104 211.044 C 176.658 208.903,181.427 202.817,181.456 192.729 C 181.481 184.461,176.590 177.895,169.293 176.399 C 167.682 176.069,167.694 175.884,169.361 175.424 C 175.058 173.849,178.531 169.017,178.542 162.650 C 178.559 153.596,172.527 147.584,162.217 146.379 C 158.941 145.995,128.267 146.037,128.120 146.424 M160.269 156.785 C 167.536 159.515,167.410 169.180,160.072 171.926 C 158.698 172.440,158.284 172.464,149.642 172.539 L 140.644 172.617 140.644 164.362 L 140.644 156.108 149.762 156.185 C 158.458 156.260,158.944 156.287,160.269 156.785 M203.933 164.381 C 194.452 165.683,188.319 171.070,188.319 178.097 L 188.319 179.438 191.597 179.589 C 196.084 179.794,199.257 179.850,199.353 179.724 C 199.397 179.666,199.552 178.885,199.698 177.989 C 200.206 174.880,201.752 173.587,205.614 173.043 C 212.352 172.093,216.925 174.375,216.925 178.686 L 216.925 180.181 215.673 180.537 C 213.417 181.180,212.579 181.365,206.913 182.474 C 197.001 184.414,195.583 184.835,192.511 186.750 C 183.218 192.542,183.809 206.249,193.570 211.313 C 199.494 214.387,209.089 213.432,215.198 209.162 C 216.936 207.946,217.056 207.957,217.219 209.351 C 217.284 209.911,217.507 210.772,217.715 211.263 L 218.092 212.157 223.945 212.157 C 230.369 212.157,230.202 212.200,229.447 210.740 C 228.593 209.090,228.537 208.112,228.368 191.895 C 228.184 174.230,228.218 174.643,226.668 171.573 C 225.425 169.110,222.223 166.470,219.477 165.642 C 215.796 164.533,215.170 164.450,209.893 164.366 C 207.008 164.320,204.327 164.327,203.933 164.381 M269.801 171.858 C 269.847 171.996,270.144 172.110,270.461 172.110 C 270.778 172.110,271.037 172.208,271.037 172.329 C 271.037 172.450,271.359 172.619,271.752 172.706 C 272.145 172.792,272.467 172.938,272.467 173.031 C 272.467 173.123,272.814 173.403,273.237 173.653 C 274.013 174.112,276.040 176.116,275.993 176.378 C 275.979 176.456,276.040 176.684,276.129 176.884 C 276.219 177.084,276.262 181.697,276.226 187.134 C 276.160 197.044,276.114 197.639,275.294 199.046 C 275.180 199.243,275.012 199.565,274.921 199.762 C 274.732 200.171,274.392 200.611,273.946 201.025 C 273.775 201.182,273.454 201.482,273.231 201.692 C 273.007 201.901,272.476 202.222,272.050 202.405 C 271.624 202.589,271.275 202.812,271.275 202.902 C 271.275 202.991,270.685 203.138,269.964 203.228 C 269.243 203.319,268.653 203.487,268.653 203.603 C 268.653 203.719,267.902 203.814,266.985 203.814 C 266.067 203.814,265.316 203.713,265.316 203.590 C 265.316 203.467,264.833 203.294,264.243 203.206 C 263.653 203.117,263.170 202.973,263.170 202.885 C 263.170 202.797,262.822 202.522,262.396 202.274 C 261.970 202.027,261.567 201.762,261.502 201.687 C 261.436 201.611,261.168 201.432,260.906 201.289 C 260.644 201.145,260.076 200.555,259.644 199.977 C 259.212 199.400,258.649 198.698,258.392 198.417 C 258.136 198.136,257.926 197.747,257.926 197.552 C 257.926 197.357,257.765 197.064,257.569 196.901 C 257.372 196.738,257.211 196.469,257.211 196.303 C 257.211 196.138,257.051 195.695,256.855 195.319 C 256.659 194.944,256.498 194.358,256.497 194.018 C 256.496 193.677,256.347 193.087,256.165 192.706 C 255.484 191.283,255.521 180.689,256.208 180.237 C 256.326 180.159,256.490 179.667,256.573 179.144 C 256.655 178.620,256.833 178.155,256.967 178.111 C 257.101 178.066,257.211 177.770,257.211 177.453 C 257.211 177.136,257.311 176.877,257.433 176.877 C 257.556 176.877,257.732 176.636,257.825 176.341 C 257.918 176.046,258.193 175.631,258.437 175.419 C 258.680 175.207,258.880 174.912,258.880 174.763 C 258.880 174.615,259.041 174.493,259.237 174.493 C 259.434 174.493,259.595 174.333,259.595 174.136 C 259.595 173.939,259.730 173.778,259.895 173.778 C 260.060 173.778,260.329 173.564,260.493 173.302 C 260.657 173.039,260.938 172.825,261.117 172.825 C 261.297 172.825,261.577 172.664,261.740 172.467 C 261.903 172.271,262.238 172.110,262.484 172.110 C 262.731 172.110,262.932 172.009,262.932 171.886 C 262.932 171.374,269.630 171.346,269.801 171.858 M161.489 182.475 C 165.577 183.631,167.717 185.924,168.319 189.792 C 169.048 194.482,167.548 198.104,164.208 199.721 C 161.665 200.952,161.196 201.000,150.596 201.122 L 140.644 201.236 140.644 191.531 L 140.644 181.826 150.358 181.950 C 158.466 182.054,160.306 182.141,161.489 182.475 M216.907 193.027 C 216.879 199.248,215.567 201.240,210.344 202.997 C 203.676 205.241,197.842 202.903,197.860 197.996 C 197.875 193.848,199.575 192.828,210.012 190.704 C 212.044 190.290,214.243 189.756,214.899 189.517 C 217.059 188.729,216.927 188.500,216.907 193.027 "
      stroke="none" fill="#fafbfa" fill-rule="evenodd"></path>
    <path id="path1"
      d="M1.669 59.927 C 1.669 112.831,1.703 118.198,2.046 118.330 C 2.833 118.632,117.885 118.492,118.188 118.188 C 118.492 117.885,118.632 2.833,118.330 2.046 C 118.198 1.703,112.831 1.669,59.927 1.669 L 1.669 1.669 1.669 59.927 M97.248 12.180 C 99.104 13.223,99.561 15.710,98.184 17.278 L 97.442 18.124 98.094 18.637 C 98.803 19.195,99.405 20.404,99.403 21.268 C 99.390 26.552,90.428 27.188,89.924 21.940 L 89.808 20.739 90.864 20.739 C 91.969 20.739,92.491 21.047,92.491 21.699 C 92.491 22.655,94.107 23.494,95.234 23.122 C 97.035 22.528,96.961 19.715,95.136 19.413 C 93.732 19.181,93.683 19.138,93.683 18.124 C 93.683 17.195,93.709 17.163,94.472 17.163 C 96.355 17.163,97.023 14.941,95.397 14.084 C 94.437 13.578,93.543 13.968,92.996 15.129 L 92.510 16.165 91.368 15.868 C 90.042 15.523,89.913 14.941,90.832 13.452 C 91.906 11.715,95.243 11.053,97.248 12.180 M109.541 11.928 C 109.625 12.064,109.621 12.600,109.534 13.120 L 109.374 14.064 106.915 14.064 L 104.457 14.064 104.195 14.815 C 103.656 16.361,103.809 16.745,104.797 16.332 C 109.100 14.534,112.548 20.669,109.146 24.071 C 106.430 26.787,100.834 25.435,100.834 22.062 C 100.834 21.278,103.348 21.106,103.619 21.871 C 104.401 24.088,107.196 23.715,107.581 21.343 C 107.996 18.784,105.614 17.151,103.927 18.838 C 103.206 19.559,101.311 19.511,101.310 18.772 C 101.308 17.383,102.120 12.018,102.356 11.863 C 102.779 11.585,109.365 11.644,109.541 11.928 M53.641 28.127 C 63.342 29.239,69.346 35.345,69.364 44.116 C 69.378 50.949,66.323 55.145,59.833 57.207 C 58.558 57.612,58.542 57.628,59.237 57.794 C 68.427 59.985,73.028 66.622,72.224 76.525 C 71.528 85.104,67.319 90.204,59.118 92.406 C 54.980 93.517,54.876 93.522,36.412 93.619 L 18.832 93.711 18.832 60.960 C 18.832 42.946,18.903 28.137,18.991 28.049 C 19.244 27.796,51.385 27.869,53.641 28.127 M31.345 37.940 C 31.277 38.118,31.249 41.856,31.284 46.247 L 31.347 54.231 39.213 54.299 C 51.069 54.402,53.496 53.728,55.515 49.770 C 57.961 44.975,55.751 39.972,50.417 38.229 C 48.759 37.687,31.542 37.426,31.345 37.940 M105.934 46.146 C 106.014 46.353,106.079 48.812,106.079 51.609 C 106.079 57.762,106.168 57.449,104.399 57.449 C 99.465 57.449,94.815 60.175,92.860 64.211 C 91.570 66.874,91.538 67.279,91.538 80.603 C 91.538 87.382,91.472 93.099,91.393 93.306 C 91.267 93.635,90.537 93.683,85.672 93.683 L 80.095 93.683 80.095 70.317 L 80.095 46.952 85.757 47.016 L 91.418 47.080 91.538 50.149 L 91.657 53.219 92.179 52.287 C 93.769 49.451,97.491 46.994,101.311 46.260 C 104.387 45.668,105.738 45.635,105.934 46.146 M31.387 63.806 C 31.299 63.894,31.228 68.191,31.228 73.357 L 31.228 82.749 41.538 82.664 C 55.372 82.549,57.467 81.841,58.974 76.768 C 60.834 70.504,57.707 65.246,51.371 63.981 C 49.617 63.631,31.718 63.474,31.387 63.806 M120.441 120.062 C 120.204 120.158,120.143 132.059,120.143 178.447 L 120.143 236.710 178.427 236.710 L 236.711 236.710 236.651 178.367 L 236.591 120.024 178.665 119.983 C 146.806 119.960,120.605 119.996,120.441 120.062 M225.812 129.528 C 227.203 130.121,228.541 132.130,227.840 132.575 C 227.091 133.050,225.728 132.793,225.112 132.062 C 223.979 130.715,222.165 131.642,221.808 133.750 C 221.604 134.959,221.661 135.011,222.721 134.568 C 227.524 132.561,230.638 140.176,225.985 142.550 C 222.153 144.505,218.991 141.817,218.982 136.599 C 218.972 130.964,221.949 127.882,225.812 129.528 M216.561 130.453 C 216.325 131.876,216.435 131.824,213.718 131.824 C 211.003 131.824,210.965 131.845,210.965 133.401 C 210.965 134.167,211.001 134.205,211.473 133.952 C 212.568 133.366,215.153 133.776,216.090 134.683 C 218.284 136.810,217.624 141.347,214.943 142.564 C 212.011 143.895,208.449 142.631,207.868 140.053 C 207.572 138.742,210.200 138.417,210.731 139.699 C 211.169 140.756,212.290 141.182,213.458 140.734 C 214.578 140.304,214.959 137.295,214.005 136.422 C 212.991 135.494,211.239 135.535,210.871 136.494 C 210.747 136.817,208.591 136.998,208.302 136.709 C 208.236 136.643,208.264 135.973,208.364 135.219 C 208.464 134.466,208.677 132.858,208.837 131.645 L 209.128 129.440 212.928 129.440 L 216.728 129.440 216.561 130.453 M222.969 136.709 C 222.119 137.066,221.931 137.451,221.931 138.838 C 221.931 140.901,224.434 141.611,225.397 139.822 C 226.407 137.946,224.832 135.925,222.969 136.709 M162.217 146.379 C 172.527 147.584,178.559 153.596,178.542 162.650 C 178.531 169.017,175.058 173.849,169.361 175.424 C 167.694 175.884,167.682 176.069,169.293 176.399 C 176.590 177.895,181.481 184.461,181.456 192.729 C 181.427 202.817,176.658 208.903,167.104 211.044 C 162.920 211.982,161.693 212.036,144.696 212.037 L 128.129 212.038 128.067 179.380 C 128.034 161.418,128.057 146.588,128.120 146.424 C 128.267 146.037,158.941 145.995,162.217 146.379 M140.644 164.362 L 140.644 172.617 149.642 172.539 C 159.603 172.453,160.128 172.378,162.455 170.706 C 166.440 167.843,166.632 161.101,162.812 158.187 C 160.372 156.327,160.022 156.273,149.762 156.185 L 140.644 156.108 140.644 164.362 M216.925 164.931 C 219.835 165.714,220.171 165.835,221.735 166.667 C 223.654 167.687,225.767 169.789,226.668 171.573 C 228.218 174.643,228.184 174.230,228.368 191.895 C 228.537 208.112,228.593 209.090,229.447 210.740 C 230.202 212.200,230.369 212.157,223.945 212.157 L 218.092 212.157 217.715 211.263 C 217.507 210.772,217.284 209.911,217.219 209.351 C 217.056 207.957,216.936 207.946,215.198 209.162 C 209.089 213.432,199.494 214.387,193.570 211.313 C 183.809 206.249,183.218 192.542,192.511 186.750 C 195.583 184.835,197.001 184.414,206.913 182.474 C 212.579 181.365,213.417 181.180,215.673 180.537 L 216.925 180.181 216.925 178.686 C 216.925 174.375,212.352 172.093,205.614 173.043 C 201.752 173.587,200.206 174.880,199.698 177.989 C 199.552 178.885,199.397 179.666,199.353 179.724 C 199.257 179.850,196.084 179.794,191.597 179.589 L 188.319 179.438 188.319 178.097 C 188.319 171.070,194.452 165.683,203.933 164.381 C 206.121 164.081,215.193 164.464,216.925 164.931 M140.644 191.531 L 140.644 201.236 150.596 201.122 C 161.196 201.000,161.665 200.952,164.208 199.721 C 170.109 196.864,169.980 186.460,164.006 183.433 C 161.497 182.162,160.779 182.084,150.358 181.950 L 140.644 181.826 140.644 191.531 M214.899 189.517 C 214.243 189.756,212.044 190.290,210.012 190.704 C 199.575 192.828,197.875 193.848,197.860 197.996 C 197.842 202.903,203.676 205.241,210.344 202.997 C 215.567 201.240,216.879 199.248,216.907 193.027 C 216.927 188.500,217.059 188.729,214.899 189.517 "
      stroke="none" fill="#085a39" fill-rule="evenodd"></path>
  </g>
</svg>