<?xml version="1.0" standalone="no"?>
<!DOCTYPE svg PUBLIC "-//W3C//DTD SVG 20010904//EN"
 "http://www.w3.org/TR/2001/REC-SVG-20010904/DTD/svg10.dtd">
<svg version="1.0" xmlns="http://www.w3.org/2000/svg"
 width="400.000000pt" height="238.000000pt" viewBox="0 0 400.000000 238.000000"
 preserveAspectRatio="xMidYMid meet">

<g transform="translate(0.000000,238.000000) scale(0.100000,-0.100000)"
fill="#000000" stroke="none">
<path d="M3675 892 c-46 -36 -61 -55 -63 -77 -6 -68 31 -71 75 -6 16 22 32 40
37 41 5 0 6 -48 3 -114 -9 -143 -3 -151 79 -111 81 40 117 110 80 160 -13 18
-15 17 -46 -19 -18 -20 -34 -35 -36 -33 -2 2 -9 42 -14 88 -14 107 -17 119
-39 119 -9 0 -44 -22 -76 -48z"/>
<path d="M3457 873 c-12 -12 -7 -58 9 -81 19 -27 51 -29 59 -2 14 43 -41 110
-68 83z"/>
<path d="M3527 763 c-25 -24 26 -166 77 -218 31 -31 72 -33 81 -4 8 24 -59
170 -94 207 -21 21 -51 29 -64 15z"/>
<path d="M3439 629 c-6 -12 -14 -57 -16 -101 -3 -43 -9 -81 -14 -83 -4 -3 -17
24 -29 59 -11 36 -27 70 -35 76 -21 17 -47 8 -64 -21 -12 -22 -12 -32 4 -82
27 -85 81 -167 111 -167 26 0 47 32 59 90 14 74 14 74 39 51 12 -12 32 -21 44
-21 40 0 80 58 52 75 -6 3 -35 37 -66 76 -30 38 -59 69 -64 69 -5 0 -14 -10
-21 -21z"/>
<path d="M3126 440 c-48 -43 -66 -87 -66 -163 0 -99 35 -167 87 -167 31 0 72
41 79 80 4 16 9 30 13 30 3 0 17 -28 31 -62 28 -71 50 -83 76 -43 15 24 16 33
6 74 -21 80 -80 191 -103 191 -13 0 -19 7 -19 23 0 31 -27 67 -50 67 -11 0
-35 -14 -54 -30z m44 -93 c0 -13 5 -17 15 -13 12 4 15 -4 14 -47 0 -29 -4 -60
-8 -70 -6 -16 -9 -17 -19 -5 -25 31 -43 103 -37 148 6 41 8 43 21 25 8 -10 14
-27 14 -38z"/>
</g>
</svg>
