<?xml version="1.0" standalone="no"?>
<!DOCTYPE svg PUBLIC "-//W3C//DTD SVG 20010904//EN"
 "http://www.w3.org/TR/2001/REC-SVG-20010904/DTD/svg10.dtd">
<svg version="1.0" xmlns="http://www.w3.org/2000/svg"
 width="400.000000pt" height="238.000000pt" viewBox="0 0 400.000000 238.000000"
 preserveAspectRatio="xMidYMid meet">

<g transform="translate(0.000000,238.000000) scale(0.100000,-0.100000)"
fill="#000000" stroke="none">
<path d="M3611 1343 c-103 -77 -121 -107 -101 -168 20 -60 59 -40 126 64 l29
45 3 -175 c3 -196 5 -203 69 -189 44 10 136 72 159 108 25 38 29 102 10 141
-10 18 -21 31 -25 29 -5 -2 -28 -27 -51 -57 -45 -57 -60 -56 -60 3 0 16 -7 76
-16 135 -15 99 -25 131 -45 131 -4 0 -48 -30 -98 -67z"/>
<path d="M3282 1288 c-19 -19 -14 -72 11 -109 42 -62 93 -46 84 26 -8 75 -59
119 -95 83z"/>
<path d="M3380 1135 c-52 -63 98 -355 183 -355 62 0 61 56 -3 187 -73 149
-142 213 -180 168z"/>
<path d="M3272 968 c-15 -19 -31 -94 -32 -149 0 -66 -11 -139 -21 -139 -5 0
-21 39 -36 87 -26 85 -57 133 -86 133 -8 0 -27 -10 -42 -22 -25 -20 -27 -25
-23 -82 3 -44 15 -84 44 -146 51 -107 95 -160 135 -160 36 0 49 24 79 148 l23
94 21 -25 c46 -55 97 -57 141 -5 14 16 25 34 25 40 0 5 -22 35 -50 66 -27 31
-69 82 -93 112 -45 58 -67 70 -85 48z"/>
<path d="M2824 688 c-94 -64 -137 -183 -114 -314 20 -120 62 -174 131 -174 30
0 43 7 68 35 16 19 35 54 41 77 6 24 12 47 14 52 1 5 19 -32 40 -82 20 -50 43
-96 51 -102 22 -18 47 -8 69 29 17 30 18 40 9 86 -14 66 -65 188 -103 249 -22
35 -36 46 -55 46 -21 0 -25 5 -25 30 0 52 -33 100 -70 100 -4 0 -29 -15 -56
-32z m36 -115 c6 -21 14 -44 16 -52 4 -11 7 -12 16 -3 7 7 15 12 18 12 7 0 -6
-190 -14 -197 -24 -24 -78 100 -78 178 0 99 21 130 42 62z"/>
</g>
</svg>
